<?xml version="1.0" encoding="UTF-8"?>
<svg width="64px" height="56px" viewBox="0 0 64 56" version="1.1" xmlns="http://www.w3.org/2000/svg" xmlns:xlink="http://www.w3.org/1999/xlink">
    <!-- Generator: Sketch 43.2 (39069) - http://www.bohemiancoding.com/sketch -->
    <title>icon / logotype</title>
    <desc>Created with Sketch.</desc>
    <defs></defs>
    <g id="Symbols" stroke="none" stroke-width="1" fill="none" fill-rule="evenodd">
        <g id="icon-/-logotype">
            <path d="M0.351457627,9.86676923 C0.429559322,6.57138462 0.497898305,3.28569231 0.576,0 C11.6859661,0.882 22.7959322,1.77369231 33.8961356,2.65569231 C47.4467797,4.39061538 51.2444746,15.2944615 51.2347119,21.3909231 C51.2249492,30.7924615 44.3324746,38.6626154 34.9016949,39.2344615 C23.2840678,39.8256923 11.6469153,40.4169231 0.0195254237,41.0081538 L0.0195254237,30.6955385 C11.5395254,30.4726154 23.0595254,30.2593846 34.5697627,30.0364615 C46.2850169,29.2804615 46.3338305,12.4546154 34.1694915,11.5241538 C33.6911186,11.4950769 34.1890169,11.5241538 34.1694915,11.5241538 C22.903322,10.9716923 11.6273898,10.4192308 0.351457627,9.86676923" id="Fill-1" fill="#0081C6"></path>
            <path d="M1.02508475,11.6404615 L31.7873898,12.9683077 C38.1038644,13.8212308 39.8416271,17.4752308 39.9587797,22.2438462 L42.7118644,24.3858462 C45.0939661,17.9501538 40.759322,11.9506154 34.2378305,11.5241538 L0.351457627,9.86676923 L1.02508475,11.6404615 Z" id="Fill-3" fill="#6C6E70"></path>
            <polygon id="Fill-5" fill="#FEFEFE" points="0.0195254237 30.6955385 0.956745763 30.0946154 24.3579661 29.7456923 26.2519322 30.1915385"></polygon>
            <path d="M26.2421695,39.6706154 L26.1933559,17.0293846 L34.4721356,17.0293846 L42.7118644,24.3858462 C41.5793898,26.9155385 39.7635254,28.7667692 36.9518644,29.6196923 L34.7650169,27.6812308 L34.7650169,39.2344615 L26.2421695,39.6706154 Z" id="Fill-7" fill="#D1D2D4"></path>
            <polygon id="Fill-9" fill="#6C6E70" points="24.4653559 17.766 26.1933559 17.0293846 26.1933559 30.1915385 24.3579661 29.7456923"></polygon>
            <path d="M34.7650169,29.1156923 L34.7650169,27.6812308 C35.4972203,28.3306154 36.219661,28.98 36.9518644,29.6196923 L34.7650169,29.1156923 Z" id="Fill-11" fill="#6C6E70"></path>
            <path d="M44.0200678,35.9487692 C47.8665763,33.1573846 50.2291525,29.2416923 51.0687458,23.9109231 L57.4242712,18.0567692 L63.9555254,18.2506154 L63.9555254,37.6158462 L57.7073898,37.9744615 L57.5804746,27.5164615 L46.656,38.2167692 L44.0200678,35.9487692 Z" id="Fill-13" fill="#D1D2D4"></path>
            <path d="M51.2054237,20.3635385 L53.0115254,18.5801538 L57.4242712,18.0567692 L51.0687458,23.9109231 C51.2054237,22.7866154 51.2542373,21.6235385 51.2054237,20.3635385" id="Fill-15" fill="#6C6E70"></path>
            <polygon id="Fill-17" fill="#6C6E70" points="53.128678 36.9276923 53.128678 31.9458462 57.5804746 27.5164615 57.7073898 37.9744615"></polygon>
            <polygon id="Fill-19" fill="#6C6E70" points="46.656 38.2167692 44.0200678 35.9487692 42.7021017 36.8307692"></polygon>
            <path d="M34.7650169,30.0170769 C35.4972203,29.9686154 36.219661,29.8329231 36.9518644,29.6196923 L34.7650169,29.1156923 L34.7650169,30.0170769 Z" id="Fill-21" fill="#FEFEFE"></path>
            <path d="M2.80189831,53.9764615 C2.61640678,54.0346154 2.41138983,54.0636923 2.18684746,54.0636923 C1.54250847,54.0636923 1.04461017,53.8213846 0.702915254,53.3367692 C0.361220339,52.8424615 0.185491525,52.2512308 0.185491525,51.5436923 C0.185491525,50.7683077 0.370983051,50.1673846 0.751728814,49.7506154 C1.13247458,49.3338462 1.61084746,49.1303077 2.19661017,49.1303077 C2.41138983,49.1303077 2.61640678,49.1593846 2.80189831,49.2078462 L2.80189831,50.4775385 L2.76284746,50.4775385 C2.5480678,50.4775385 2.37233898,50.5647692 2.22589831,50.7392308 C2.07945763,50.9136923 2.01111864,51.2141538 2.01111864,51.6212308 C2.01111864,52.0089231 2.08922034,52.29 2.23566102,52.4741538 C2.38210169,52.6486154 2.56759322,52.7455385 2.78237288,52.7455385 L2.80189831,52.7455385 L2.80189831,53.9764615 Z M9.27457627,52.6486154 L11.0904407,52.4838462 C11.1587797,52.6970769 11.2661695,52.8521538 11.4028475,52.9393846 C11.5395254,53.0363077 11.7152542,53.0847692 11.9397966,53.0847692 C12.1838644,53.0847692 12.3791186,53.0266154 12.5060339,52.92 C12.6134237,52.8521538 12.6622373,52.7455385 12.6622373,52.6389231 C12.6622373,52.5032308 12.5938983,52.4063077 12.4572203,52.3287692 C12.3595932,52.2803077 12.096,52.2221538 11.6762034,52.1446154 C11.0416271,52.038 10.6023051,51.9313846 10.3582373,51.8441538 C10.1044068,51.7472308 9.89938983,51.5921538 9.73342373,51.3692308 C9.55769492,51.1463077 9.47959322,50.8943077 9.47959322,50.6035385 C9.47959322,50.2933846 9.56745763,50.022 9.75294915,49.7990769 C9.92867797,49.5761538 10.1825085,49.4016923 10.504678,49.2950769 C10.8268475,49.1787692 11.2564068,49.1303077 11.7933559,49.1303077 C12.3595932,49.1303077 12.7793898,49.1690769 13.0527458,49.2563077 C13.316339,49.3435385 13.5408814,49.4792308 13.7263729,49.6536923 C13.9021017,49.8378462 14.0583051,50.0801538 14.1754576,50.3903077 L12.4474576,50.5647692 C12.3986441,50.4096923 12.3303051,50.2933846 12.2229153,50.2255385 C12.0764746,50.1286154 11.9007458,50.0801538 11.7054915,50.0801538 C11.5004746,50.0801538 11.3442712,50.1189231 11.2466441,50.1964615 C11.1587797,50.2643077 11.1099661,50.3515385 11.1099661,50.4581538 C11.1099661,50.5744615 11.1685424,50.6616923 11.2856949,50.7198462 C11.4126102,50.778 11.6664407,50.8361538 12.0667119,50.8846154 C12.672,50.9524615 13.1308475,51.0396923 13.4237288,51.1656923 C13.7166102,51.2916923 13.9509153,51.4564615 14.1071186,51.6890769 C14.263322,51.912 14.3414237,52.164 14.3414237,52.4256923 C14.3414237,52.7067692 14.2535593,52.9684615 14.0875932,53.2301538 C13.9216271,53.4821538 13.6580339,53.6953846 13.3065763,53.8407692 C12.9453559,53.9958462 12.4572203,54.0733846 11.8421695,54.0733846 C10.9732881,54.0733846 10.3582373,53.9473846 9.98725424,53.7050769 C9.61627119,53.4530769 9.3819661,53.1041538 9.27457627,52.6486154 L9.27457627,52.6486154 Z M6.60935593,53.9570769 L8.43498305,53.9570769 L8.43498305,49.2369231 L6.60935593,49.2369231 L6.60935593,53.9570769 Z M6.60935593,48.6650769 L8.43498305,48.6650769 L8.43498305,47.4341538 L6.60935593,47.4341538 L6.60935593,48.6650769 Z M17.8364746,49.2272308 L17.8364746,50.4581538 C17.6119322,50.4678462 17.4264407,50.5550769 17.28,50.7295385 C17.1237966,50.9136923 17.0456949,51.2044615 17.0456949,51.6115385 C17.0456949,51.9798462 17.1237966,52.2609231 17.28,52.4450769 C17.4362034,52.6098462 17.6216949,52.7067692 17.8364746,52.7164615 L17.8364746,53.9861538 C17.787661,53.9667692 17.7290847,53.9473846 17.6802712,53.928 C17.4459661,53.8310769 17.2409492,53.6856923 17.0554576,53.5015385 L17.0554576,55.7598462 L15.2200678,55.7598462 L15.2200678,49.2369231 L16.9285424,49.2369231 L16.9285424,49.9347692 C17.1628475,49.6343077 17.3776271,49.4404615 17.5728814,49.3338462 C17.6607458,49.2950769 17.7486102,49.2563077 17.8364746,49.2272308 L17.8364746,49.2272308 Z M5.4280678,47.4341538 L5.4280678,53.9570769 L3.71959322,53.9570769 L3.71959322,53.2592308 C3.48528814,53.5596923 3.26074576,53.7632308 3.06549153,53.8601538 C2.97762712,53.9086154 2.89952542,53.9473846 2.80189831,53.9764615 L2.80189831,52.7455385 C3.02644068,52.7358462 3.2119322,52.6486154 3.36813559,52.4741538 C3.52433898,52.29 3.60244068,51.9895385 3.60244068,51.5824615 C3.60244068,51.2141538 3.52433898,50.9330769 3.35837288,50.7586154 C3.2119322,50.5841538 3.02644068,50.4872308 2.80189831,50.4775385 L2.80189831,49.2078462 C2.86047458,49.2272308 2.91905085,49.2466154 2.96786441,49.266 C3.20216949,49.3629231 3.40718644,49.5083077 3.58291525,49.6924615 L3.58291525,47.4341538 L5.4280678,47.4341538 Z M21.3998644,53.9570769 L23.2254915,53.9570769 L23.2254915,47.4341538 L21.3998644,47.4341538 L21.3998644,53.9570769 Z M17.8364746,53.9861538 L17.8364746,52.7164615 L17.8852881,52.7164615 C18.1000678,52.7164615 18.2757966,52.6292308 18.4222373,52.4547692 C18.5589153,52.2803077 18.6370169,51.9895385 18.6370169,51.5727692 C18.6370169,51.1850769 18.5589153,50.904 18.4124746,50.7295385 C18.2562712,50.5453846 18.0805424,50.4581538 17.8657627,50.4581538 L17.8364746,50.4581538 L17.8364746,49.2272308 C18.0317288,49.1593846 18.2367458,49.1303077 18.4612881,49.1303077 C19.0958644,49.1303077 19.584,49.3726154 19.9354576,49.8572308 C20.2869153,50.3321538 20.4626441,50.9330769 20.4626441,51.6503077 C20.4626441,52.4353846 20.2673898,53.0363077 19.8866441,53.4433846 C19.5058983,53.8601538 19.0275254,54.0636923 18.4515254,54.0636923 C18.2367458,54.0636923 18.0317288,54.0346154 17.8364746,53.9861538 L17.8364746,53.9861538 Z M26.8181695,51.0687692 L26.8181695,51.9604615 C26.4667119,52.0573846 26.2421695,52.1543077 26.1445424,52.2415385 C26.0469153,52.3384615 25.9981017,52.4547692 25.9981017,52.5807692 C25.9981017,52.7164615 26.0469153,52.8327692 26.1445424,52.9296923 C26.2519322,53.0169231 26.3983729,53.0653846 26.5838644,53.0653846 C26.6619661,53.0653846 26.7400678,53.0556923 26.8181695,53.0363077 L26.8181695,53.9473846 C26.5448136,54.0249231 26.2421695,54.0636923 25.9004746,54.0636923 C25.3342373,54.0636923 24.904678,53.9376923 24.6117966,53.676 C24.3189153,53.4143077 24.1627119,53.0944615 24.1627119,52.7067692 C24.1627119,52.3481538 24.2701017,52.0573846 24.4848814,51.8247692 C24.699661,51.5921538 25.0901695,51.4176923 25.6564068,51.3110769 C26.1933559,51.2044615 26.5741017,51.1172308 26.8181695,51.0687692 L26.8181695,51.0687692 Z M26.8181695,49.1303077 L26.8181695,50.2158462 C26.6131525,50.2255385 26.4569492,50.274 26.3397966,50.3418462 C26.2226441,50.4193846 26.1250169,50.5647692 26.056678,50.7683077 L24.3091525,50.5841538 C24.3774915,50.2836923 24.4751186,50.0413846 24.5922712,49.8669231 C24.7191864,49.6924615 24.8949153,49.5470769 25.1292203,49.4210769 C25.2951864,49.3241538 25.5294915,49.2563077 25.8223729,49.1981538 C26.1152542,49.1496923 26.427661,49.1303077 26.7693559,49.1303077 L26.8181695,49.1303077 Z M29.9910508,49.2369231 L31.9143051,49.2369231 L32.8905763,52.3772308 L33.7985085,49.2369231 L35.5948475,49.2369231 L33.7106441,54.2866154 C33.4958644,54.8584615 33.271322,55.2558462 33.0467797,55.4496923 C32.7441356,55.7404615 32.256,55.8761538 31.611661,55.8761538 C31.3480678,55.8761538 30.9380339,55.8470769 30.391322,55.7695385 L30.2448814,54.5095385 C30.5084746,54.5870769 30.8013559,54.6355385 31.1235254,54.6355385 C31.3383051,54.6355385 31.5140339,54.5870769 31.6507119,54.4901538 C31.7776271,54.3835385 31.8947797,54.2090769 31.9826441,53.9570769 L29.9910508,49.2369231 Z M26.8181695,53.9473846 L26.8181695,53.0363077 C26.935322,53.0169231 27.0524746,52.9781538 27.1598644,52.92 C27.3355932,52.8133846 27.4527458,52.6970769 27.5308475,52.5613846 C27.5991864,52.416 27.6382373,52.2318462 27.6382373,52.0089231 L27.6382373,51.7181538 C27.3844068,51.8053846 27.1208136,51.8829231 26.8572203,51.9507692 L26.8181695,51.9604615 L26.8181695,51.0687692 C26.8865085,51.0493846 26.9450847,51.03 26.9938983,51.0203077 C27.1989153,50.9621538 27.4136949,50.8943077 27.6382373,50.8070769 C27.6382373,50.5841538 27.5894237,50.4290769 27.5015593,50.3418462 C27.4039322,50.2449231 27.2477288,50.2061538 27.0134237,50.2061538 C26.9450847,50.2061538 26.8767458,50.2061538 26.8181695,50.2158462 L26.8181695,49.1303077 C27.3453559,49.1303077 27.7651525,49.1593846 28.087322,49.2175385 C28.4192542,49.2756923 28.7023729,49.4016923 28.9171525,49.5955385 C29.0733559,49.7312308 29.2002712,49.9250769 29.2881356,50.1673846 C29.376,50.4096923 29.4248136,50.6423077 29.4248136,50.8652308 L29.4248136,52.9587692 C29.4248136,53.1816923 29.4345763,53.3561538 29.4638644,53.4821538 C29.4931525,53.6081538 29.5517288,53.7632308 29.6493559,53.9570769 L27.9408814,53.9570769 C27.8725424,53.8407692 27.8237288,53.7438462 27.8042034,53.6856923 C27.784678,53.6178462 27.7651525,53.5209231 27.7456271,53.3852308 C27.5015593,53.6081538 27.2672542,53.7729231 27.0231864,53.8698462 C26.9548475,53.8989231 26.8865085,53.928 26.8181695,53.9473846 L26.8181695,53.9473846 Z" id="Fill-23" fill="#221F20"></path>
            <path d="M45.7578305,49.0527692 L45.7578305,49.7215385 C44.8694237,49.7312308 44.4593898,50.4678462 44.4105763,51.0881538 L45.7578305,51.0881538 L45.7578305,51.7472308 L44.3715254,51.7472308 C44.4301017,52.8521538 45.064678,53.3464615 45.7578305,53.3755385 L45.7578305,54.0346154 C44.3227119,54.0152308 43.5416949,53.0363077 43.5416949,51.5824615 C43.5416949,50.1383077 44.3129492,49.0624615 45.7578305,49.0527692 L45.7578305,49.0527692 Z M45.7578305,47.3856923 L45.7578305,48.5003077 L45.2306441,48.5003077 L45.7578305,47.3856923 Z M36.1610847,53.928 L36.9616271,53.928 L36.9616271,51.4564615 C36.9616271,51.0396923 36.9909153,50.6907692 37.1666441,50.3030769 C37.3130847,49.9832308 37.7133559,49.7603077 38.1429153,49.7603077 C38.9336949,49.7603077 38.9825085,50.3806154 38.9825085,50.8264615 L38.9825085,53.928 L39.7830508,53.928 L39.7830508,51.1656923 C39.7830508,50.8070769 39.8416271,50.5163077 39.9978305,50.2546154 C40.183322,49.9347692 40.5933559,49.7603077 40.9448136,49.7603077 C41.7941695,49.7603077 41.7941695,50.4678462 41.7941695,50.9233846 L41.7941695,53.928 L42.6044746,53.928 L42.6044746,50.652 C42.6044746,50.3127692 42.5947119,49.0527692 41.1303051,49.0527692 C40.2418983,49.0527692 39.8318644,49.6343077 39.6658983,49.896 C39.4706441,49.3435385 39.0020339,49.0527692 38.3186441,49.0527692 C37.6352542,49.0527692 37.1568814,49.4016923 36.9030508,49.8281538 L36.8835254,49.8281538 L36.8835254,49.1690769 L36.1610847,49.1690769 L36.1610847,53.928 Z M58.3029153,52.1833846 C58.2736271,52.416 58.1369492,53.3755385 57.1118644,53.3755385 C55.7841356,53.3755385 55.7841356,51.8441538 55.7841356,51.534 C55.7841356,50.9815385 55.9012881,49.7215385 57.160678,49.7215385 C57.6585763,49.7215385 58.0783729,49.9929231 58.2345763,50.6810769 L59.0155932,50.5647692 C58.9765424,50.3612308 58.9277288,50.0898462 58.7227119,49.7990769 C58.3029153,49.1884615 57.5707119,49.0527692 57.1216271,49.0527692 C56.1844068,49.0527692 54.9640678,49.5761538 54.9640678,51.5533846 C54.9640678,52.8230769 55.5595932,54.0346154 57.1216271,54.0346154 C57.5218983,54.0346154 58.8398644,53.8892308 59.1034576,52.2803077 L58.3029153,52.1833846 Z M53.1872542,48.2676923 L53.9975593,48.2676923 L53.9975593,47.3469231 L53.1872542,47.3469231 L53.1872542,48.2676923 Z M53.1872542,53.928 L53.9975593,53.928 L53.9975593,49.1690769 L53.1872542,49.1690769 L53.1872542,53.928 Z M48.0618305,53.928 L49.0478644,53.928 L50.2877288,52.0476923 L50.4536949,52.29 C50.4927458,52.3578462 50.5317966,52.4256923 50.551322,52.4450769 L51.5275932,53.928 L52.5136271,53.928 L50.7465763,51.3983077 L52.3867119,49.1690769 L51.4202034,49.1690769 L50.6294237,50.2836923 C50.4536949,50.526 50.4341695,50.5550769 50.2584407,50.8167692 C50.1901017,50.6713846 50.1412881,50.6035385 49.9265085,50.2836923 L49.1943051,49.1690769 L48.1985085,49.1690769 L49.7995932,51.4467692 L48.0618305,53.928 Z M45.7578305,48.5003077 L45.7578305,47.3856923 L45.8261695,47.2403077 L46.8707797,47.2403077 L45.8847458,48.5003077 L45.7578305,48.5003077 Z M45.7578305,51.7472308 L45.7578305,51.0881538 L47.095322,51.0881538 C47.0757966,50.9136923 47.0562712,50.7101538 46.9684068,50.4775385 C46.8024407,50.0801538 46.3435932,49.7215385 45.7675932,49.7215385 L45.7578305,49.7215385 L45.7578305,49.0527692 L45.7675932,49.0527692 C46.1678644,49.0527692 47.9934915,49.1787692 47.9153898,51.7472308 L45.7578305,51.7472308 Z M45.7578305,54.0346154 L45.7578305,53.3755385 L45.8164068,53.3755385 C46.724339,53.3755385 46.9684068,52.668 47.0660339,52.3966154 L47.8861017,52.4935385 C47.6517966,53.3949231 46.9879322,54.0346154 45.8164068,54.0346154 L45.7578305,54.0346154 Z M61.7296271,49.0527692 L61.7296271,49.7215385 C61.2219661,49.7215385 60.3237966,50.0026154 60.3237966,51.5436923 C60.3237966,53.1041538 61.2512542,53.3755385 61.7296271,53.3755385 L61.7296271,54.0346154 C61.0852881,54.0346154 60.4214237,53.7923077 59.972339,53.2301538 C59.5330169,52.6776923 59.5037288,51.9023077 59.5037288,51.5436923 C59.5037288,51.03 59.5818305,50.3612308 59.9918644,49.8475385 C60.4214237,49.2950769 61.1048136,49.0527692 61.7296271,49.0527692 L61.7296271,49.0527692 Z M61.7296271,54.0346154 L61.7296271,53.3755385 C62.8718644,53.3755385 63.1256949,52.2706154 63.1256949,51.5243077 C63.1256949,50.2546154 62.4520678,49.7215385 61.7296271,49.7215385 L61.7296271,49.0527692 C62.7254237,49.0527692 63.9457627,49.6536923 63.9457627,51.4758462 C63.9457627,52.4935385 63.6919322,52.9587692 63.4771525,53.2301538 C63.0280678,53.7826154 62.3544407,54.0346154 61.7296271,54.0346154 L61.7296271,54.0346154 Z" id="Fill-25" fill="#6C6E70"></path>
            <polygon id="Fill-27" fill="#6C6E70" points="0 30.7149231 0.673627119 30.1624615 24.3579661 29.7263077 26.2324068 30.1915385"></polygon>
        </g>
    </g>
</svg>