<?xml version="1.0" encoding="UTF-8"?>
<svg width="197px" height="24px" viewBox="0 0 197 24" version="1.1" xmlns="http://www.w3.org/2000/svg" xmlns:xlink="http://www.w3.org/1999/xlink">
    <!-- Generator: Sketch 43.2 (39069) - http://www.bohemiancoding.com/sketch -->
    <title>icon / socialmedia</title>
    <desc>Created with Sketch.</desc>
    <defs></defs>
    <g id="Symbols" stroke="none" stroke-width="1" fill="none" fill-rule="evenodd">
        <g id="icon-/-socialmedia" fill="#0081C6">
            <path d="M21.1939,7.5321 C22.1679,6.9481 22.9179,6.0221 23.2669,4.9171 C22.3559,5.4601 21.3469,5.8541 20.2689,6.0631 C19.4129,5.1451 18.1829,4.5711 16.8239,4.5711 C14.2179,4.5711 12.1049,6.6901 12.1049,9.3001 C12.1049,9.6711 12.1449,10.0301 12.2279,10.3761 C8.3029,10.1791 4.8279,8.2991 2.4979,5.4341 C2.0919,6.1361 1.8579,6.9481 1.8579,7.8151 C1.8579,9.4541 2.6909,10.9031 3.9599,11.7511 C3.1849,11.7271 2.4559,11.5131 1.8209,11.1601 L1.8209,11.2191 C1.8209,13.5111 3.4469,15.4221 5.6079,15.8561 C5.2119,15.9681 4.7929,16.0221 4.3619,16.0221 C4.0589,16.0221 3.7619,15.9931 3.4739,15.9361 C4.0769,17.8151 5.8179,19.1841 7.8839,19.2211 C6.2689,20.4891 4.2329,21.2451 2.0219,21.2451 C1.6399,21.2451 1.2639,21.2241 0.8949,21.1801 C2.9859,22.5201 5.4669,23.3041 8.1309,23.3041 C16.8139,23.3041 21.5619,16.1011 21.5619,9.8491 C21.5619,9.6431 21.5559,9.4401 21.5489,9.2371 C22.4699,8.5691 23.2729,7.7361 23.9039,6.7881 C23.0569,7.1641 22.1459,7.4181 21.1939,7.5321 Z" id="Fill-1"></path>
            <path d="M64.1558,7.6954 L66.5308,7.6954 L66.5308,5.3824 C66.5308,4.3624 66.5568,2.7914 67.2958,1.8174 C68.0748,0.7854 69.1438,0.0854 70.9828,0.0854 C73.9778,0.0854 75.2398,0.5124 75.2398,0.5124 L74.6458,4.0384 C74.6458,4.0384 73.6548,3.7514 72.7328,3.7514 C71.8078,3.7514 70.9828,4.0834 70.9828,5.0084 L70.9828,7.6954 L74.7688,7.6954 L74.5038,11.1374 L70.9828,11.1374 L70.9828,23.0964 L66.5308,23.0964 L66.5308,11.1374 L64.1558,11.1374 L64.1558,7.6954 Z" id="Fill-3"></path>
            <path d="M173.9478,21.1094 C173.8278,21.1094 173.7098,21.0984 173.5958,21.0684 L178.7388,14.2514 L179.1308,13.7334 L179.8198,14.2514 L184.2248,17.5644 L184.3628,17.5644 L188.7678,14.2514 L189.4578,13.7334 L189.8508,14.2514 L194.9918,21.0684 C194.8728,21.0984 194.7548,21.1094 194.6398,21.1094 L184.3158,21.1094 L184.2728,21.1094 L173.9478,21.1094 Z" id="Fill-7"></path>
            <path d="M173.2456,7.5713 C173.4556,7.4513 173.6906,7.3913 173.9466,7.3913 L187.4266,7.3913 L194.4996,7.3913 C194.7966,7.3913 195.0686,7.4813 195.3066,7.6313 L190.0446,11.5073 L186.3156,14.2513 L184.2246,15.7903 L182.1636,14.2513 L173.2456,7.5713 Z" id="Fill-9"></path>
            <path d="M196.1138,8.8731 L196.1138,19.6291 C196.1138,19.8131 196.0858,19.9871 196.0188,20.1471 L190.5498,12.9061 L196.1068,8.7251 C196.1138,8.7651 196.1138,8.8191 196.1138,8.8731" id="Fill-11"></path>
            <path d="M178.0376,12.9073 L177.0206,14.2513 L172.5686,20.1453 C172.5046,19.9853 172.4736,19.8133 172.4736,19.6293 L172.4736,14.2513 L172.4736,8.8733 C172.4736,8.8193 172.4736,8.7673 172.4786,8.7243 L178.0376,12.9073 Z" id="Fill-13"></path>
            <path d="M113.4048,13.8243 C113.4788,9.3613 117.5748,5.4493 122.0308,5.5983 C124.1648,5.4993 126.1728,6.4313 127.8068,7.7373 C127.1098,8.5333 126.3858,9.2983 125.6138,10.0133 C123.6498,8.6533 120.8528,8.2643 118.8878,9.8353 C116.0738,11.7843 115.9468,16.3853 118.6528,18.4813 C121.2828,20.8743 126.2538,19.6863 126.9798,16.0243 C125.3328,16.0003 123.6808,16.0243 122.0338,15.9713 C122.0308,14.9863 122.0258,14.0033 122.0308,13.0173 C124.7828,13.0083 127.5388,13.0053 130.2968,13.0263 C130.4628,15.3423 130.1568,17.8073 128.7348,19.7233 C126.5848,22.7563 122.2638,23.6403 118.8968,22.3423 C115.5138,21.0513 113.1188,17.4733 113.4048,13.8243" id="Fill-28"></path>
            <path d="M135.6695,10.5303 L138.1245,10.5303 C138.1285,11.3543 138.1335,12.1803 138.1425,13.0053 C138.9645,13.0123 139.7905,13.0123 140.6115,13.0223 L140.6115,15.4833 C139.7905,15.4913 138.9685,15.4963 138.1425,15.5033 C138.1335,16.3293 138.1285,17.1533 138.1245,17.9753 L135.6645,17.9753 C135.6555,17.1533 135.6555,16.3293 135.6485,15.5073 C134.8265,15.4993 133.9995,15.4913 133.1795,15.4833 L133.1795,13.0223 C133.9995,13.0123 134.8225,13.0093 135.6485,13.0053 C135.6535,12.1763 135.6605,11.3543 135.6695,10.5303" id="Fill-38"></path>
        </g>
    </g>
</svg>