<?xml version="1.0" encoding="UTF-8"?>
<svg width="244px" height="40px" viewBox="0 0 244 40" version="1.1" xmlns="http://www.w3.org/2000/svg" xmlns:xlink="http://www.w3.org/1999/xlink">
    <!-- Generator: Sketch 43.2 (39069) - http://www.bohemiancoding.com/sketch -->
    <title>icon / logotype horizontal</title>
    <desc>Created with Sketch.</desc>
    <defs></defs>
    <g id="Symbols" stroke="none" stroke-width="1" fill="none" fill-rule="evenodd">
        <g id="icon-/-logotype-horizontal">
            <g id="Page-1">
                <path d="M0.321559322,9.61259016 C0.397220339,6.40209836 0.463423729,3.20104918 0.539084746,0 C11.3018644,0.859278689 22.0646441,1.728 32.8179661,2.58727869 C45.9451525,4.2775082 49.6241695,14.900459 49.6147119,20.8398689 C49.6052542,29.9992131 42.9281695,37.666623 33.7921017,38.2237377 C22.5375254,38.7997377 11.2640339,39.3757377 0,39.9517377 L0,29.9047869 C11.16,29.6876066 22.32,29.4798689 33.4705424,29.2626885 C44.8196949,28.5261639 44.8669831,12.1337705 33.0827797,11.2272787 C32.6193559,11.1989508 33.1016949,11.2272787 33.0827797,11.2272787 C22.168678,10.6890492 11.2451186,10.1508197 0.321559322,9.61259016" id="Fill-1" fill="#0081C6"></path>
                <path d="M0.974135593,11.3405902 L30.7751186,12.6342295 C36.8942034,13.4651803 38.577661,17.0250492 38.6911525,21.6708197 L41.3582034,23.7576393 C43.6658644,17.4877377 39.466678,11.6427541 33.1489831,11.2272787 L0.321559322,9.61259016 L0.974135593,11.3405902 Z" id="Fill-3" fill="#6C6E70"></path>
                <polygon id="Fill-5" fill="#FEFEFE" points="0 29.9047869 0.907932203 29.3193443 23.5778644 28.9794098 25.4126441 29.4137705"></polygon>
                <path d="M25.4031864,38.6486557 L25.3558983,16.5906885 L33.3759661,16.5906885 L41.3582034,23.7576393 C40.2611186,26.2221639 38.502,28.0257049 35.7782034,28.8566557 L33.6596949,26.9681311 L33.6596949,38.2237377 L25.4031864,38.6486557 Z" id="Fill-7" fill="#D1D2D4"></path>
                <polygon id="Fill-9" fill="#6C6E70" points="23.6818983 17.3083279 25.3558983 16.5906885 25.3558983 29.4137705 23.5778644 28.9794098"></polygon>
                <path d="M33.6596949,28.3656393 L33.6596949,26.9681311 C34.3690169,27.6007869 35.0688814,28.2334426 35.7782034,28.8566557 L33.6596949,28.3656393 Z" id="Fill-11" fill="#6C6E70"></path>
                <path d="M42.6255254,35.0226885 C46.3518305,32.3032131 48.6405763,28.4883934 49.4539322,23.2949508 L55.6108475,17.5916066 L61.938,17.780459 L61.938,36.6468197 L55.8851186,36.9961967 L55.7621695,26.8076066 L45.1790847,37.2322623 L42.6255254,35.0226885 Z" id="Fill-13" fill="#D1D2D4"></path>
                <path d="M49.586339,19.8389508 L51.336,18.1015082 L55.6108475,17.5916066 L49.4539322,23.2949508 C49.586339,22.1996066 49.6336271,21.0664918 49.586339,19.8389508" id="Fill-15" fill="#6C6E70"></path>
                <polygon id="Fill-17" fill="#6C6E70" points="51.4494915 35.9763934 51.4494915 31.1228852 55.7621695 26.8076066 55.8851186 36.9961967"></polygon>
                <polygon id="Fill-19" fill="#6C6E70" points="45.1790847 37.2322623 42.6255254 35.0226885 41.3487458 35.8819672"></polygon>
                <path d="M33.6596949,29.2438033 C34.3690169,29.1965902 35.0688814,29.0643934 35.7782034,28.8566557 L33.6596949,28.3656393 L33.6596949,29.2438033 Z" id="Fill-21" fill="#FEFEFE"></path>
            </g>
            <g id="Page-1" transform="translate(78.000000, 10.000000)">
                <path d="M6.80071338,17.7064615 C6.31857325,17.8593231 5.78568153,17.9357538 5.20203822,17.9357538 C3.52723567,17.9357538 2.23307006,17.2988308 1.3449172,16.0249846 C0.456764331,14.7256615 0,13.1715692 0,11.3117538 C0,9.2736 0.482140127,7.69403077 1.47179618,6.59852308 C2.46145223,5.50301538 3.70486624,4.968 5.22741401,4.968 C5.78568153,4.968 6.31857325,5.04443077 6.80071338,5.17181538 L6.80071338,8.50929231 L6.69921019,8.50929231 C6.14094268,8.50929231 5.68417834,8.73858462 5.3035414,9.19716923 C4.92290446,9.65575385 4.74527389,10.4455385 4.74527389,11.5155692 C4.74527389,12.5346462 4.94828025,13.2734769 5.3289172,13.7575385 C5.70955414,14.2161231 6.19169427,14.4708923 6.74996178,14.4708923 L6.80071338,14.4708923 L6.80071338,17.7064615 Z M23.6248662,14.2161231 L28.3447643,13.7830154 C28.5223949,14.3435077 28.8015287,14.7511385 29.1567898,14.9804308 C29.512051,15.2352 29.9688153,15.3625846 30.5524586,15.3625846 C31.1868535,15.3625846 31.6943694,15.2097231 32.0242548,14.9294769 C32.3033885,14.7511385 32.4302675,14.4708923 32.4302675,14.1906462 C32.4302675,13.8339692 32.2526369,13.5792 31.8973758,13.3753846 C31.6436178,13.248 30.9584713,13.0951385 29.8673121,12.8913231 C28.2178854,12.6110769 27.0759745,12.3308308 26.4415796,12.1015385 C25.7818089,11.8467692 25.2489172,11.4391385 24.8175287,10.8531692 C24.3607643,10.2672 24.157758,9.6048 24.157758,8.84049231 C24.157758,8.02523077 24.3861401,7.31187692 24.8682803,6.72590769 C25.3250446,6.13993846 25.9848153,5.68135385 26.8222166,5.40110769 C27.6596178,5.09538462 28.7761529,4.968 30.1718217,4.968 C31.6436178,4.968 32.7347771,5.06990769 33.4452994,5.2992 C34.1304459,5.52849231 34.7140892,5.88516923 35.1962293,6.34375385 C35.6529936,6.82781538 36.0590064,7.46473846 36.3635159,8.28 L31.872,8.73858462 C31.745121,8.33095385 31.5674904,8.02523077 31.2883567,7.84689231 C30.9077197,7.59212308 30.4509554,7.46473846 29.9434395,7.46473846 C29.4105478,7.46473846 29.004535,7.56664615 28.7507771,7.77046154 C28.5223949,7.9488 28.3955159,8.17809231 28.3955159,8.45833846 C28.3955159,8.76406154 28.5477707,8.99335385 28.8522803,9.14621538 C29.1821656,9.29907692 29.8419363,9.45193846 30.8823439,9.57932308 C32.4556433,9.75766154 33.6483057,9.98695385 34.4095796,10.3181538 C35.1708535,10.6493538 35.7798726,11.0824615 36.1858854,11.6939077 C36.5918981,12.2798769 36.7949045,12.9422769 36.7949045,13.6301538 C36.7949045,14.3689846 36.5665223,15.0568615 36.1351338,15.7447385 C35.7037452,16.4071385 35.0185987,16.9676308 34.1050701,17.3497846 C33.1661656,17.7574154 31.8973758,17.9612308 30.2987006,17.9612308 C28.0402548,17.9612308 26.4415796,17.6300308 25.4772994,16.9931077 C24.5130191,16.3307077 23.904,15.4135385 23.6248662,14.2161231 L23.6248662,14.2161231 Z M16.6972739,17.6555077 L21.4425478,17.6555077 L21.4425478,5.24824615 L16.6972739,5.24824615 L16.6972739,17.6555077 Z M16.6972739,3.74510769 L21.4425478,3.74510769 L21.4425478,0.509538462 L16.6972739,0.509538462 L16.6972739,3.74510769 Z M45.8794395,5.22276923 L45.8794395,8.45833846 C45.2957962,8.48381538 44.8136561,8.71310769 44.4330191,9.17169231 C44.0270064,9.65575385 43.824,10.4200615 43.824,11.4900923 C43.824,12.4582154 44.0270064,13.1970462 44.4330191,13.6811077 C44.8390318,14.1142154 45.321172,14.3689846 45.8794395,14.3944615 L45.8794395,17.7319385 C45.7525605,17.6809846 45.6003057,17.6300308 45.4734268,17.5790769 C44.8644076,17.3243077 44.3315159,16.9421538 43.8493758,16.4580923 L43.8493758,22.3942154 L39.0787261,22.3942154 L39.0787261,5.24824615 L43.5194904,5.24824615 L43.5194904,7.08258462 C44.1285096,6.2928 44.6867771,5.78326154 45.194293,5.50301538 C45.4226752,5.40110769 45.6510573,5.2992 45.8794395,5.22276923 L45.8794395,5.22276923 Z M13.6268025,0.509538462 L13.6268025,17.6555077 L9.18603822,17.6555077 L9.18603822,15.8211692 C8.57701911,16.6109538 7.9933758,17.1459692 7.48585987,17.4007385 C7.25747771,17.5281231 7.05447134,17.6300308 6.80071338,17.7064615 L6.80071338,14.4708923 C7.38435669,14.4454154 7.86649682,14.2161231 8.27250955,13.7575385 C8.67852229,13.2734769 8.88152866,12.4836923 8.88152866,11.4136615 C8.88152866,10.4455385 8.67852229,9.70670769 8.24713376,9.24812308 C7.86649682,8.78953846 7.38435669,8.53476923 6.80071338,8.50929231 L6.80071338,5.17181538 C6.95296815,5.22276923 7.10522293,5.27372308 7.23210191,5.32467692 C7.84112102,5.57944615 8.37401274,5.9616 8.83077707,6.44566154 L8.83077707,0.509538462 L13.6268025,0.509538462 Z M55.1416051,17.6555077 L59.886879,17.6555077 L59.886879,0.509538462 L55.1416051,0.509538462 L55.1416051,17.6555077 Z M45.8794395,17.7319385 L45.8794395,14.3944615 L46.0063185,14.3944615 C46.564586,14.3944615 47.0213503,14.1651692 47.4019873,13.7065846 C47.7572484,13.248 47.9602548,12.4836923 47.9602548,11.3881846 C47.9602548,10.3691077 47.7572484,9.63027692 47.3766115,9.17169231 C46.9705987,8.68763077 46.5138344,8.45833846 45.9555669,8.45833846 L45.8794395,8.45833846 L45.8794395,5.22276923 C46.3869554,5.04443077 46.9198471,4.968 47.5034904,4.968 C49.1529172,4.968 50.421707,5.60492308 51.3352357,6.87876923 C52.2487643,8.12713846 52.7055287,9.70670769 52.7055287,11.592 C52.7055287,13.6556308 52.1980127,15.2352 51.2083567,16.3052308 C50.2187006,17.4007385 48.9752866,17.9357538 47.4781146,17.9357538 C46.9198471,17.9357538 46.3869554,17.8593231 45.8794395,17.7319385 L45.8794395,17.7319385 Z M69.225172,10.0633846 L69.225172,12.4072615 C68.3116433,12.6620308 67.728,12.9168 67.474242,13.1460923 C67.2204841,13.4008615 67.0936051,13.7065846 67.0936051,14.0377846 C67.0936051,14.3944615 67.2204841,14.7001846 67.474242,14.9549538 C67.7533758,15.1842462 68.1340127,15.3116308 68.6161529,15.3116308 C68.8191592,15.3116308 69.0221656,15.2861538 69.225172,15.2352 L69.225172,17.6300308 C68.5146497,17.8338462 67.728,17.9357538 66.8398471,17.9357538 C65.368051,17.9357538 64.2515159,17.6045538 63.490242,16.9166769 C62.7289682,16.2288 62.3229554,15.3880615 62.3229554,14.3689846 C62.3229554,13.4263385 62.6020892,12.6620308 63.1603567,12.0505846 C63.7186242,11.4391385 64.7336561,10.9805538 66.2054522,10.7003077 C67.601121,10.4200615 68.5907771,10.1907692 69.225172,10.0633846 L69.225172,10.0633846 Z M69.225172,4.968 L69.225172,7.82141538 C68.6922803,7.84689231 68.2862675,7.97427692 67.981758,8.15261538 C67.6772484,8.35643077 67.4234904,8.73858462 67.2458599,9.2736 L62.7035924,8.78953846 C62.8812229,7.99975385 63.1349809,7.36283077 63.4394904,6.90424615 C63.7693758,6.44566154 64.2261401,6.06350769 64.8351592,5.73230769 C65.2665478,5.47753846 65.8755669,5.2992 66.6368408,5.14633846 C67.3981146,5.01895385 68.2101401,4.968 69.098293,4.968 L69.225172,4.968 Z M77.4723057,5.24824615 L82.4713376,5.24824615 L85.0089172,13.5027692 L87.3688662,5.24824615 L92.0380127,5.24824615 L87.1404841,18.5217231 C86.5822166,20.0248615 85.9985732,21.0694154 85.4149299,21.5789538 C84.6282803,22.3432615 83.3594904,22.6999385 81.6846879,22.6999385 C80.9995414,22.6999385 79.933758,22.6235077 78.5127134,22.4196923 L78.1320764,19.1076923 C78.8172229,19.3115077 79.5784968,19.4388923 80.4158981,19.4388923 C80.9741656,19.4388923 81.4309299,19.3115077 81.7861911,19.0567385 C82.1160764,18.7764923 82.420586,18.3179077 82.6489682,17.6555077 L77.4723057,5.24824615 Z M69.225172,17.6300308 L69.225172,15.2352 C69.5296815,15.1842462 69.8341911,15.0823385 70.1133248,14.9294769 C70.5700892,14.6492308 70.8745987,14.3435077 71.0776051,13.9868308 C71.2552357,13.6046769 71.3567389,13.1206154 71.3567389,12.5346462 L71.3567389,11.7703385 C70.6969682,11.9996308 70.0118217,12.2034462 69.3266752,12.3817846 L69.225172,12.4072615 L69.225172,10.0633846 C69.4028025,10.0124308 69.5550573,9.96147692 69.6819363,9.936 C70.214828,9.78313846 70.7730955,9.6048 71.3567389,9.37550769 C71.3567389,8.78953846 71.2298599,8.38190769 71.0014777,8.15261538 C70.7477197,7.89784615 70.341707,7.79593846 69.7326879,7.79593846 C69.5550573,7.79593846 69.3774268,7.79593846 69.225172,7.82141538 L69.225172,4.968 C70.595465,4.968 71.6866242,5.04443077 72.5240255,5.19729231 C73.3868025,5.35015385 74.1227006,5.68135385 74.6809682,6.19089231 C75.0869809,6.54756923 75.4168662,7.05710769 75.6452484,7.69403077 C75.8736306,8.33095385 76.0005096,8.9424 76.0005096,9.52836923 L76.0005096,15.0313846 C76.0005096,15.6173538 76.0258854,16.0759385 76.1020127,16.4071385 C76.1781401,16.7383385 76.3303949,17.1459692 76.5841529,17.6555077 L72.1433885,17.6555077 C71.965758,17.3497846 71.838879,17.0950154 71.7881274,16.9421538 C71.7373758,16.7638154 71.6866242,16.5090462 71.6358726,16.1523692 C71.0014777,16.7383385 70.3924586,17.1714462 69.7580637,17.4262154 C69.5804331,17.5026462 69.4028025,17.5790769 69.225172,17.6300308 L69.225172,17.6300308 Z" id="Fill-1" fill="#221F20"></path>
                <path d="M118.454217,4.76418462 L118.454217,6.52209231 C116.145019,6.54756923 115.079236,8.48381538 114.952357,10.1143385 L118.454217,10.1143385 L118.454217,11.8467692 L114.850854,11.8467692 C115.003108,14.7511385 116.652535,16.0504615 118.454217,16.1268923 L118.454217,17.8593231 C114.723975,17.8083692 112.693911,15.2352 112.693911,11.4136615 C112.693911,7.6176 114.698599,4.78966154 118.454217,4.76418462 L118.454217,4.76418462 Z M118.454217,0.382153846 L118.454217,3.312 L117.083924,3.312 L118.454217,0.382153846 Z M93.5098089,17.5790769 L95.5906242,17.5790769 L95.5906242,11.0824615 C95.5906242,9.98695385 95.6667516,9.06978462 96.1235159,8.05070769 C96.5041529,7.20996923 97.5445605,6.624 98.6610955,6.624 C100.716535,6.624 100.843414,8.25452308 100.843414,9.42646154 L100.843414,17.5790769 L102.924229,17.5790769 L102.924229,10.3181538 C102.924229,9.37550769 103.076484,8.6112 103.482497,7.92332308 C103.964637,7.08258462 105.03042,6.624 105.943949,6.624 C108.151643,6.624 108.151643,8.48381538 108.151643,9.68123077 L108.151643,17.5790769 L110.257834,17.5790769 L110.257834,8.96787692 C110.257834,8.07618462 110.232459,4.76418462 106.426089,4.76418462 C104.116892,4.76418462 103.051108,6.2928 102.61972,6.98067692 C102.112204,5.52849231 100.894166,4.76418462 99.1178599,4.76418462 C97.3415541,4.76418462 96.0981401,5.68135385 95.4383694,6.80233846 L95.3876178,6.80233846 L95.3876178,5.06990769 L93.5098089,5.06990769 L93.5098089,17.5790769 Z M151.062115,12.9932308 C150.985987,13.6046769 150.630726,16.1268923 147.966268,16.1268923 C144.515159,16.1268923 144.515159,12.1015385 144.515159,11.2862769 C144.515159,9.83409231 144.819669,6.52209231 148.093146,6.52209231 C149.387312,6.52209231 150.478471,7.23544615 150.884484,9.04430769 L152.914548,8.73858462 C152.813045,8.20356923 152.686166,7.49021538 152.153274,6.72590769 C151.062115,5.12086154 149.15893,4.76418462 147.991643,4.76418462 C145.555567,4.76418462 142.383592,6.13993846 142.383592,11.3372308 C142.383592,14.6747077 143.931516,17.8593231 147.991643,17.8593231 C149.032051,17.8593231 152.457783,17.4771692 153.14293,13.248 L151.062115,12.9932308 Z M137.765197,2.70055385 L139.871389,2.70055385 L139.871389,0.280246154 L137.765197,0.280246154 L137.765197,2.70055385 Z M137.765197,17.5790769 L139.871389,17.5790769 L139.871389,5.06990769 L137.765197,5.06990769 L137.765197,17.5790769 Z M124.442904,17.5790769 L127.00586,17.5790769 L130.228586,12.6365538 L130.659975,13.2734769 C130.761478,13.4518154 130.862981,13.6301538 130.913732,13.6811077 L133.451312,17.5790769 L136.014268,17.5790769 L131.421248,10.9296 L135.684382,5.06990769 L133.172178,5.06990769 L131.116739,7.99975385 C130.659975,8.63667692 130.609223,8.71310769 130.152459,9.40098462 C129.974828,9.01883077 129.847949,8.84049231 129.289682,7.99975385 L127.386497,5.06990769 L124.798166,5.06990769 L128.959796,11.0569846 L124.442904,17.5790769 Z M118.454217,3.312 L118.454217,0.382153846 L118.631847,0 L121.347057,0 L118.784102,3.312 L118.454217,3.312 Z M118.454217,11.8467692 L118.454217,10.1143385 L121.930701,10.1143385 C121.879949,9.65575385 121.829197,9.12073846 121.600815,8.50929231 C121.169427,7.46473846 119.976764,6.52209231 118.479592,6.52209231 L118.454217,6.52209231 L118.454217,4.76418462 L118.479592,4.76418462 C119.52,4.76418462 124.265274,5.09538462 124.062268,11.8467692 L118.454217,11.8467692 Z M118.454217,17.8593231 L118.454217,16.1268923 L118.606471,16.1268923 C120.96642,16.1268923 121.600815,14.2670769 121.854573,13.5537231 L123.98614,13.8084923 C123.377121,16.1778462 121.651567,17.8593231 118.606471,17.8593231 L118.454217,17.8593231 Z M159.969019,4.76418462 L159.969019,6.52209231 C158.649478,6.52209231 156.314904,7.26092308 156.314904,11.3117538 C156.314904,15.4135385 158.725605,16.1268923 159.969019,16.1268923 L159.969019,17.8593231 C158.294217,17.8593231 156.568662,17.2224 155.401376,15.7447385 C154.259465,14.2925538 154.183338,12.2544 154.183338,11.3117538 C154.183338,9.96147692 154.386344,8.20356923 155.452127,6.85329231 C156.568662,5.40110769 158.344968,4.76418462 159.969019,4.76418462 L159.969019,4.76418462 Z M159.969019,17.8593231 L159.969019,16.1268923 C162.937987,16.1268923 163.597758,13.2225231 163.597758,11.2608 C163.597758,7.92332308 161.846828,6.52209231 159.969019,6.52209231 L159.969019,4.76418462 C162.55735,4.76418462 165.729325,6.34375385 165.729325,11.1334154 C165.729325,13.8084923 165.069554,15.0313846 164.511287,15.7447385 C163.344,17.1969231 161.59307,17.8593231 159.969019,17.8593231 L159.969019,17.8593231 Z" id="Fill-3" fill="#6C6E70"></path>
            </g>
        </g>
    </g>
</svg>