<?xml version="1.0" encoding="UTF-8"?>
<svg width="70px" height="70px" viewBox="0 0 70 70" version="1.1" xmlns="http://www.w3.org/2000/svg" xmlns:xlink="http://www.w3.org/1999/xlink">
    <!-- Generator: Sketch 43.2 (39069) - http://www.bohemiancoding.com/sketch -->
    <title>icon / mision</title>
    <desc>Created with Sketch.</desc>
    <defs></defs>
    <g id="Symbols" stroke="none" stroke-width="1" fill="none" fill-rule="evenodd">
        <g id="icon-/-mision">
            <path d="M34.5,31.0714286 C36.9578571,31.0714286 38.9285714,33.0399286 38.9285714,35.5 C38.9285714,37.9600714 36.9578571,39.9285714 34.5,39.9285714 C32.0421429,39.9285714 30.0714286,37.9600714 30.0714286,35.5 C30.0714286,33.0399286 32.0421429,31.0714286 34.5,31.0714286 L34.5,31.0714286 Z M34.5,28.8571429 C30.8442143,28.8571429 27.8571429,31.8442143 27.8571429,35.5 C27.8571429,39.1557857 30.8442143,42.1428571 34.5,42.1428571 C38.1557857,42.1428571 41.1428571,39.1557857 41.1428571,35.5 C41.1428571,31.8442143 38.1557857,28.8571429 34.5,28.8571429 L34.5,28.8571429 Z M34.5,24.4285714 C40.6269286,24.4285714 45.5714286,29.3730714 45.5714286,35.5 C45.5714286,41.6269286 40.6269286,46.5714286 34.5,46.5714286 C28.3730714,46.5714286 23.4285714,41.6269286 23.4285714,35.5 C23.4285714,29.3730714 28.3730714,24.4285714 34.5,24.4285714 L34.5,24.4285714 Z M33.3928571,20 L33.3928571,22.2652143 C26.9492857,22.8010714 21.8055,27.9492857 21.2696429,34.3928571 L19,34.3928571 L19,36.6071429 L21.2696429,36.6071429 C21.8077143,43.0485 26.9515,48.1945 33.3928571,48.7303571 L33.3928571,51 L35.6071429,51 L35.6071429,48.7303571 C42.0485,48.1945 47.1922857,43.0485 47.7303571,36.6071429 L50,36.6071429 L50,34.3928571 L47.7303571,34.3928571 C47.1945,27.9492857 42.0507143,22.8010714 35.6071429,22.2652143 L35.6071429,20 L33.3928571,20 Z" id="Page-1" fill="#0081C6"></path>
            <circle id="Oval-Copy-3" stroke="#0081C6" stroke-width="3" cx="35.5" cy="35.5" r="31.5"></circle>
        </g>
    </g>
</svg>