<?xml version="1.0" encoding="UTF-8"?>
<svg width="70px" height="70px" viewBox="0 0 70 70" version="1.1" xmlns="http://www.w3.org/2000/svg" xmlns:xlink="http://www.w3.org/1999/xlink">
    <!-- Generator: Sketch 43.2 (39069) - http://www.bohemiancoding.com/sketch -->
    <title>icon / objective</title>
    <desc>Created with Sketch.</desc>
    <defs></defs>
    <g id="Symbols" stroke="none" stroke-width="1" fill="none" fill-rule="evenodd">
        <g id="icon-/-objective" stroke="#0081C6">
            <g id="Page-1" transform="translate(22.000000, 23.000000)" fill="#4990E2">
                <path d="M24.5790698,17.1036585 L1.20930233,17.1036585 L1.20930233,2.5304878 L24.5790698,2.5304878 L24.5790698,17.1036585 M25.1837209,1.31097561 L13.4837209,1.31097561 L13.4837209,0.609756098 C13.4837209,0.274390244 13.2116279,0 12.8790698,0 C12.5465116,0 12.2744186,0.274390244 12.2744186,0.609756098 L12.2744186,1.31097561 L0.604651163,1.31097561 C0.272093023,1.31097561 0,1.58536585 0,1.92073171 L0,17.7134146 C0,18.0487805 0.272093023,18.3231707 0.604651163,18.3231707 L8.82790698,18.3231707 L5.5627907,24.0853659 C5.41162791,24.3902439 5.50232558,24.7560976 5.7744186,24.9085366 C5.86511628,24.9695122 5.98604651,25 6.07674419,25 C6.28837209,25 6.5,24.8780488 6.59069767,24.695122 L10.1883721,18.3231707 L12.2744186,18.3231707 L12.2744186,23.4756098 C12.2744186,23.8109756 12.5465116,24.0853659 12.8790698,24.0853659 C13.2116279,24.0853659 13.4837209,23.8109756 13.4837209,23.4756098 L13.4837209,18.3231707 L15.5697674,18.3231707 L19.1674419,24.695122 C19.2883721,24.8780488 19.4697674,25 19.6813953,25 C19.772093,25 19.8930233,24.9695122 19.9837209,24.9085366 C20.2860465,24.7560976 20.3767442,24.3597561 20.1953488,24.0853659 L16.9604651,18.3231707 L25.1837209,18.3231707 C25.5162791,18.3231707 25.7883721,18.0487805 25.7883721,17.7134146 L25.7883721,1.92073171 C25.7883721,1.58536585 25.5162791,1.31097561 25.1837209,1.31097561" id="Fill-1"></path>
                <path d="M13,13.6280488 C11.0651163,13.6280488 9.49302326,12.0426829 9.49302326,10.0914634 C9.49302326,8.1402439 11.0651163,6.58536585 13,6.58536585 C14.9348837,6.58536585 16.5069767,8.17073171 16.5069767,10.1219512 C16.5069767,12.0731707 14.9046512,13.6280488 13,13.6280488 M13,5.30487805 C10.3697674,5.30487805 8.25348837,7.4695122 8.25348837,10.0914634 C8.25348837,12.7134146 10.4,14.8780488 13,14.8780488 C15.6302326,14.8780488 17.7465116,12.7134146 17.7465116,10.0914634 C17.7465116,7.4695122 15.6,5.30487805 13,5.30487805" id="Fill-3"></path>
                <path d="M12.4860465,11.7987805 C12.3348837,11.7987805 12.1837209,11.7378049 12.0627907,11.6158537 L10.9139535,10.4268293 C10.672093,10.1829268 10.672093,9.81707317 10.9139535,9.57317073 C11.155814,9.32926829 11.5186047,9.32926829 11.7604651,9.57317073 L12.4860465,10.304878 L14.2093023,8.56707317 C14.4511628,8.32317073 14.8139535,8.32317073 15.055814,8.56707317 C15.2976744,8.81097561 15.2976744,9.17682927 15.055814,9.42073171 L12.9093023,11.5853659 C12.8186047,11.7378049 12.6674419,11.7987805 12.4860465,11.7987805" id="Fill-5"></path>
            </g>
            <circle id="Oval-Copy-4" stroke-width="3" cx="34.5" cy="35.5" r="31.5"></circle>
        </g>
    </g>
</svg>