<?xml version="1.0" encoding="UTF-8"?>
<svg width="70px" height="70px" viewBox="0 0 70 70" version="1.1" xmlns="http://www.w3.org/2000/svg" xmlns:xlink="http://www.w3.org/1999/xlink">
    <!-- Generator: Sketch 43.2 (39069) - http://www.bohemiancoding.com/sketch -->
    <title>icon / values</title>
    <desc>Created with Sketch.</desc>
    <defs></defs>
    <g id="Symbols" stroke="none" stroke-width="1" fill="none" fill-rule="evenodd">
        <g id="icon-/-values" stroke="#0081C6">
            <circle id="Oval" stroke-width="3" cx="35.5" cy="35.5" r="31.5"></circle>
            <g id="Page-1" transform="translate(17.000000, 23.000000)" fill="#0081C6">
                <path d="M30.9752778,14.5075 L27.8922111,11.4645833 L27.8917889,11.4641667 L22.5219667,6.165 C22.4202111,6.06416667 22.2825667,6.00833333 22.1394333,6.00833333 C22.1276111,6.00833333 22.1149444,6.00875 22.1035444,6.00958333 C20.7427222,6.09916667 19.6766111,7.38 18.6451222,8.61916667 C17.7120111,9.74 16.7468111,10.8995833 15.7723222,10.8995833 C15.5958333,10.8995833 15.4210333,10.86375 15.2377889,10.79 C15.1503889,10.755 15.0532778,10.6941667 14.9933222,10.51 C14.6796111,9.54541667 15.7381222,7.10166667 16.8933222,5.29208333 C17.8209444,3.83875 19.8678778,1.40125 23.1544556,1.40125 C24.5207667,1.40125 25.7329667,1.97875 26.8028778,2.48875 C27.6979889,2.915 28.5432778,3.31833333 29.3581667,3.31833333 C30.5104111,3.31833333 31.5984778,3.03541667 32.1828333,2.85166667 L36.7390333,10.5520833 L30.9752778,14.5075 Z M31.9556778,16.9858333 C32.1967667,17.2233333 32.3297667,17.5404167 32.3297667,17.8770833 C32.3297667,18.21375 32.1971889,18.53 31.9556778,18.7683333 C31.7145889,19.0058333 31.3941222,19.1375 31.0529667,19.1375 L31.0525444,19.1375 C30.7113889,19.1375 30.3909222,19.00625 30.1494111,18.7683333 L24.5017667,13.1941667 C24.2902333,12.9854167 23.9473889,12.9854167 23.7362778,13.1941667 C23.5251667,13.4029167 23.5247444,13.74125 23.7362778,13.9495833 L28.8755667,19.0216667 C28.8764111,19.0220833 28.8772556,19.0233333 28.8781,19.0245833 C29.1196111,19.2625 29.2521889,19.5791667 29.2521889,19.9158333 C29.2521889,20.2525 29.1200333,20.5683333 28.8781,20.8070833 C28.6370111,21.0445833 28.3165444,21.17625 27.9753889,21.17625 C27.6338111,21.17625 27.3133444,21.045 27.0722556,20.8070833 L26.1264778,19.87375 C26.1256333,19.8733333 26.1252111,19.8725 26.1243667,19.8716667 C26.1243667,19.87125 26.1235222,19.8708333 26.1235222,19.8704167 L22.7584111,16.55 C22.5473,16.34125 22.2044556,16.34125 21.9929222,16.55 C21.7813889,16.75875 21.7813889,17.0970833 21.9929222,17.3054167 L25.3597222,20.6279167 C25.6003889,20.8658333 25.7329667,21.1820833 25.7329667,21.5183333 C25.7329667,21.855 25.6003889,22.17125 25.3588778,22.4095833 C25.1173667,22.6479167 24.7969,22.77875 24.4557444,22.77875 C24.1145889,22.77875 23.7941222,22.6479167 23.5526111,22.4091667 L21.3857667,20.2716667 C21.1746556,20.0629167 20.8318111,20.0629167 20.6202778,20.2716667 C20.4087444,20.48 20.4087444,20.8183333 20.6202778,21.0270833 L22.6393444,23.0191667 C22.2462556,23.2916667 21.6901889,23.45625 21.1062556,23.45625 C20.7279444,23.45625 20.3585,23.38875 20.0350778,23.2620833 C19.2434111,22.8525 19.0918333,22.5916667 19.0635444,22.4983333 C19.0272333,22.3775 19.1218111,22.2 19.2814111,21.9225 C19.7572556,21.0958333 20.1115,20.1183333 18.4547,18.895 C18.5036778,18.7070833 18.5319667,18.5120833 18.5319667,18.3129167 C18.5319667,17.6908333 18.2862333,17.10625 17.8407889,16.66625 C17.3949222,16.22625 16.8025444,15.9841667 16.1717444,15.9841667 C15.9581,15.9841667 15.7495222,16.01375 15.5485444,16.0679167 C15.5219444,15.48625 15.2825444,14.94375 14.8624333,14.5295833 C14.4169889,14.0895833 13.8241889,13.8470833 13.1938111,13.8470833 C12.5634333,13.8470833 11.9710556,14.0895833 11.5251889,14.5295833 L11.3394111,14.7129167 C11.2452556,14.27875 11.0278111,13.88 10.7022778,13.55875 C10.2568333,13.11875 9.66403333,12.87625 9.03365556,12.87625 C8.40327778,12.87625 7.81047778,13.11875 7.36461111,13.55875 L7.08214444,13.8375 C7.06398889,13.8175 7.04583333,13.7970833 7.02387778,13.7791667 L1.27236667,9.0725 L6.47076667,1.77875 C7.03738889,2.01041667 8.09758889,2.38291667 9.24518889,2.47875 C10.0571222,2.5475 10.9340778,2.21583333 11.8629667,1.865 C12.9721444,1.44625 14.2295222,0.971666667 15.5911889,1.085 C16.5939667,1.16875 17.5351,1.48333333 18.3993889,2.01416667 C17.2817667,2.88708333 16.4812333,3.9325 15.9775222,4.72166667 C15.7060333,5.14708333 13.3432778,8.93166667 13.9626778,10.8358333 C14.1083444,11.2833333 14.4081222,11.6091667 14.8290778,11.77875 C15.1402556,11.9041667 15.4577667,11.9675 15.7727444,11.9675 C17.2593889,11.9675 18.3892556,10.61 19.4823889,9.29708333 C20.2934778,8.32291667 21.1294778,7.31833333 21.9507,7.11166667 L30.5302556,15.5783333 L30.5315222,15.5795833 L31.9556778,16.9858333 Z M18.0261444,22.8008333 C18.1080556,23.0745833 18.2786333,23.3258333 18.5539222,23.5704167 C17.6431889,23.7295833 16.2988333,23.6854167 15.2306111,22.5195833 C15.2909889,22.4708333 15.3488333,22.41875 15.4045667,22.36375 L17.8407889,19.9591667 C17.8766778,19.92375 17.9091889,19.8858333 17.9425444,19.8483333 C18.8355444,20.5333333 18.6409,20.8733333 18.3407,21.3945833 C18.1253667,21.7695833 17.8568333,22.2358333 18.0261444,22.8008333 L18.0261444,22.8008333 Z M13.7363667,21.9775 C13.3952111,21.9775 13.0747444,21.84625 12.8336556,21.6083333 C12.3362778,21.1175 12.3358556,20.3191667 12.8319667,19.8279167 L14.8637,17.8225 C14.8649667,17.82125 14.8662333,17.8195833 14.8675,17.8183333 L15.2698778,17.42125 C15.5109667,17.18375 15.8318556,17.0525 16.1730111,17.0525 C16.5141667,17.0525 16.8350556,17.1833333 17.0761444,17.4216667 C17.3172333,17.66 17.4502333,17.9758333 17.4502333,18.3125 C17.4502333,18.6491667 17.3172333,18.9654167 17.0761444,19.20375 L14.6395,21.6083333 C14.3984111,21.8458333 14.0775222,21.9775 13.7363667,21.9775 L13.7363667,21.9775 Z M12.0677444,19.07 C12.0664778,19.0720833 12.0647889,19.07375 12.0631,19.0758333 L11.6619889,19.47125 C11.4209,19.7091667 11.1000111,19.8404167 10.7588556,19.8404167 C10.4177,19.8404167 10.0972333,19.7095833 9.85572222,19.47125 C9.61421111,19.2329167 9.48163333,18.9166667 9.48163333,18.58 C9.48163333,18.2433333 9.61421111,17.9270833 9.85572222,17.68875 L12.2923667,15.2845833 C12.5334556,15.0466667 12.8543444,14.915 13.1950778,14.915 C13.5362333,14.915 13.8571222,15.04625 14.0982111,15.2845833 C14.3393,15.5220833 14.4723,15.83875 14.4723,16.1758333 C14.4723,16.51125 14.3397222,16.8266667 14.0999,17.0645833 L12.0677444,19.07 Z M8.85505556,17.1654167 C8.61396667,17.4029167 8.29307778,17.5345833 7.95192222,17.5345833 C7.61076667,17.5345833 7.2903,17.4033333 7.04921111,17.1654167 C6.80812222,16.9270833 6.67512222,16.6108333 6.67512222,16.2741667 C6.67512222,15.9375 6.80812222,15.62125 7.04921111,15.3829167 L8.13178889,14.3145833 C8.37287778,14.0766667 8.69376667,13.945 9.03492222,13.945 C9.37607778,13.945 9.69654444,14.07625 9.93805556,14.3145833 C10.1791444,14.5520833 10.3117222,14.86875 10.3117222,15.2058333 C10.3117222,15.5425 10.1791444,15.8583333 9.93763333,16.0970833 L8.85505556,17.1654167 Z M37.9263222,10.43875 L32.8930111,1.9325 C32.7583222,1.70416667 32.4750111,1.6075 32.2254778,1.70541667 C32.2119667,1.71083333 30.8215889,2.24916667 29.3577444,2.24916667 C28.7907,2.24916667 28.0872778,1.91416667 27.2732333,1.52583333 C26.1568778,0.994166667 24.7681889,0.332083333 23.1540333,0.332083333 C21.6669667,0.332083333 20.4066333,0.752916667 19.3599444,1.3625 C18.2465444,0.585416667 17.0119667,0.131666667 15.6819667,0.0208333333 C14.0724556,-0.11375 12.6326778,0.430416667 11.4753667,0.8675 C10.6309222,1.18666667 9.90301111,1.46125 9.33596667,1.41458333 C7.88563333,1.29333333 6.53832222,0.640833333 6.52438889,0.634166667 C6.28541111,0.517083333 5.9945,0.589583333 5.84081111,0.805416667 L0.0985888889,8.86208333 C-0.0639666667,9.09 -0.0213222222,9.40291667 0.1957,9.58083333 L6.32087778,14.5908333 L6.28372222,14.6275 C5.83827778,15.0675 5.59254444,15.6520833 5.59254444,16.2741667 C5.59254444,16.89625 5.83827778,17.4808333 6.28372222,17.9204167 C6.72916667,18.36 7.32154444,18.6029167 7.95234444,18.6029167 C8.10434444,18.6029167 8.25423333,18.5879167 8.40032222,18.56 C8.40032222,18.5670833 8.39947778,18.5733333 8.39947778,18.58 C8.39947778,19.2020833 8.64521111,19.7866667 9.09065556,20.2266667 C9.5361,20.6666667 10.1289,20.90875 10.7592778,20.90875 C10.9733444,20.90875 11.1823444,20.8791667 11.3833222,20.8245833 C11.4095,21.3845833 11.6358111,21.9370833 12.0681667,22.3633333 C12.5136111,22.8033333 13.1064111,23.0458333 13.7367889,23.0458333 C13.9014556,23.0458333 14.0631667,23.0283333 14.2206556,22.99625 C15.2711444,24.2970833 16.6264778,24.7045833 17.8255889,24.7045833 C18.6067,24.7045833 19.3211,24.5325 19.8400111,24.3241667 C20.2369,24.45375 20.6692556,24.5245833 21.1075222,24.5245833 C22.0587889,24.5245833 22.9501,24.2016667 23.5433222,23.6658333 C23.8287444,23.7845833 24.1373889,23.8470833 24.4561667,23.8470833 L24.4570111,23.8470833 C25.0869667,23.8470833 25.6797667,23.605 26.1247889,23.165 C26.4731222,22.8216667 26.6969,22.3891667 26.7792333,21.92 C27.1474111,22.1341667 27.5611889,22.2433333 27.9758111,22.2433333 C28.5800111,22.2433333 29.1837889,22.01625 29.6440111,21.5620833 C30.0472333,21.1645833 30.2849444,20.6475 30.3263222,20.0920833 C30.5581222,20.1658333 30.8021667,20.2054167 31.0529667,20.2054167 L31.0533889,20.2054167 C31.6833444,20.2054167 32.2761444,19.9629167 32.7215889,19.5229167 C33.1674556,19.0833333 33.4127667,18.49875 33.4127667,17.8766667 C33.4127667,17.2545833 33.1674556,16.67 32.7215889,16.23 L31.7534333,15.2745833 L37.7679889,11.14625 C37.9997889,10.9875 38.0686111,10.6791667 37.9263222,10.43875 L37.9263222,10.43875 Z" id="Fill-1"></path>
            </g>
        </g>
    </g>
</svg>