<?xml version="1.0" encoding="UTF-8"?>
<svg width="70px" height="70px" viewBox="0 0 70 70" version="1.1" xmlns="http://www.w3.org/2000/svg" xmlns:xlink="http://www.w3.org/1999/xlink">
    <!-- Generator: Sketch 43.2 (39069) - http://www.bohemiancoding.com/sketch -->
    <title>icon / vision</title>
    <desc>Created with Sketch.</desc>
    <defs></defs>
    <g id="Symbols" stroke="none" stroke-width="1" fill="none" fill-rule="evenodd">
        <g id="icon-/-vision">
            <g id="Page-1" transform="translate(17.000000, 26.000000)" fill="#0081C6">
                <path d="M17.5,16.7589744 C10.4513889,16.7589744 4.42361111,11.2538462 2.57638889,9.35384615 C4.42361111,7.45384615 10.5,1.94871795 17.5,1.94871795 C24.5,1.94871795 30.5763889,7.45384615 32.4236111,9.35384615 C30.5763889,11.2538462 24.5486111,16.7589744 17.5,16.7589744 L17.5,16.7589744 Z M34.4652778,8.72051282 C34.1736111,8.37948718 26.8333333,0 17.5,0 C8.21527778,0 0.875,8.37948718 0.534722222,8.72051282 L0,9.35384615 L0.534722222,9.98717949 C0.826388889,10.3282051 8.16666667,18.7076923 17.5,18.7076923 C26.7847222,18.7076923 34.125,10.3282051 34.4652778,9.98717949 L35,9.35384615 L34.4652778,8.72051282 Z" id="Fill-1"></path>
                <path d="M17.5,13.7871795 C15.0694444,13.7871795 13.0763889,11.7897436 13.0763889,9.35384615 C13.0763889,6.91794872 15.0694444,4.92051282 17.5,4.92051282 C19.9305556,4.92051282 21.9236111,6.91794872 21.9236111,9.35384615 C21.9236111,11.7897436 19.9305556,13.7871795 17.5,13.7871795 M17.5,2.97179487 C13.9513889,2.97179487 11.1319444,5.84615385 11.1319444,9.35384615 C11.1319444,12.9102564 14,15.7358974 17.5,15.7358974 C21.0486111,15.7358974 23.8680556,12.8615385 23.8680556,9.35384615 C23.8680556,5.7974359 21.0486111,2.97179487 17.5,2.97179487" id="Fill-3"></path>
                <path d="M17.5,10.0846154 C17.1111111,10.0846154 16.7708333,9.74358974 16.7708333,9.35384615 C16.7708333,8.96410256 17.1111111,8.62307692 17.5,8.62307692 C17.8888889,8.62307692 18.2291667,8.96410256 18.2291667,9.35384615 C18.2291667,9.74358974 17.8888889,10.0846154 17.5,10.0846154 M17.5,6.72307692 C16.0416667,6.72307692 14.875,7.94102564 14.875,9.35384615 C14.875,10.7666667 16.0902778,11.9846154 17.5,11.9846154 C18.9097222,11.9846154 20.125,10.7666667 20.125,9.35384615 C20.125,7.94102564 18.9583333,6.72307692 17.5,6.72307692" id="Fill-5"></path>
            </g>
            <circle id="Oval-Copy-5" stroke="#0081C6" stroke-width="3" cx="34.5" cy="35.5" r="31.5"></circle>
        </g>
    </g>
</svg>